<?xml version="1.0" encoding="UTF-8" standalone="no"?>
<!DOCTYPE svg PUBLIC "-//W3C//DTD SVG 1.1//EN"
 "http://www.w3.org/Graphics/SVG/1.1/DTD/svg11.dtd">
<!-- Generated by graphviz version 14.1.5 (20260411.2331)
 -->
<!-- Title: graphir_example Pages: 1 -->
<svg width="739pt" height="830pt"
 viewBox="0.00 0.00 739.00 830.00" xmlns="http://www.w3.org/2000/svg" xmlns:xlink="http://www.w3.org/1999/xlink">
<g id="graph0" class="graph" transform="scale(1 1) rotate(0) translate(28.8 801.3)">
<title>graphir_example</title>
<polygon fill="white" stroke="none" points="-28.8,28.8 -28.8,-801.3 710.55,-801.3 710.55,28.8 -28.8,28.8"/>
<text xml:space="preserve" text-anchor="start" x="125.62" y="-754.25" font-family="Helvetica,sans-Serif" font-weight="bold" font-size="15.00">graphir — live investigation slice (SANS 508 / SHIELDBASE)</text>
<text xml:space="preserve" text-anchor="start" x="125.62" y="-738.5" font-family="Helvetica,sans-Serif" font-weight="bold" font-size="15.00">Incident &#45;&gt; Finding &#45;&gt; entity &#45;&gt; Artifact, with a verified Claim</text>
<!-- INC -->
<g id="node1" class="node">
<title>INC</title>
<path fill="#7c3aed" stroke="#7c3aed" d="M404.38,-187C404.38,-187 323.88,-187 323.88,-187 317.88,-187 311.88,-181 311.88,-175 311.88,-175 311.88,-163 311.88,-163 311.88,-157 317.88,-151 323.88,-151 323.88,-151 404.38,-151 404.38,-151 410.38,-151 416.38,-157 416.38,-163 416.38,-163 416.38,-175 416.38,-175 416.38,-181 410.38,-187 404.38,-187"/>
<text xml:space="preserve" text-anchor="middle" x="364.12" y="-170.75" font-family="Helvetica,sans-Serif" font-size="10.00" fill="white">Incident</text>
<text xml:space="preserve" text-anchor="middle" x="364.12" y="-159.5" font-family="Helvetica,sans-Serif" font-size="10.00" fill="white">SANS508&#45;SRL&#45;APT</text>
</g>
<!-- F_13f3cf7c -->
<g id="node2" class="node">
<title>F_13f3cf7c</title>
<path fill="#7c3aed" stroke="#7c3aed" d="M110.88,-657.88C110.88,-657.88 21.38,-657.88 21.38,-657.88 15.38,-657.88 9.38,-651.88 9.38,-645.88 9.38,-645.88 9.38,-628.12 9.38,-628.12 9.38,-622.12 15.38,-616.12 21.38,-616.12 21.38,-616.12 110.88,-616.12 110.88,-616.12 116.88,-616.12 122.88,-622.12 122.88,-628.12 122.88,-628.12 122.88,-645.88 122.88,-645.88 122.88,-651.88 116.88,-657.88 110.88,-657.88"/>
<text xml:space="preserve" text-anchor="middle" x="66.12" y="-644.38" font-family="Helvetica,sans-Serif" font-size="10.00" fill="white">Finding</text>
<text xml:space="preserve" text-anchor="middle" x="66.12" y="-633.12" font-family="Helvetica,sans-Serif" font-size="10.00" fill="white">lateral_movement</text>
<text xml:space="preserve" text-anchor="middle" x="66.12" y="-621.88" font-family="Helvetica,sans-Serif" font-size="10.00" fill="white">CONFIRMED (T1021)</text>
</g>
<!-- F_13f3cf7c&#45;&gt;INC -->
<g id="edge1" class="edge">
<title>F_13f3cf7c&#45;&gt;INC</title>
<path fill="none" stroke="#94a3b8" d="M93.64,-615.9C113.3,-600.32 140.82,-578.67 165.25,-560 193.64,-538.3 211.84,-542.92 229.75,-512 291.67,-405.1 198.11,-341.28 262.75,-236 273.85,-217.92 291.87,-203.66 309.6,-193.03"/>
<polygon fill="#94a3b8" stroke="#94a3b8" points="311.08,-196.21 318.06,-188.24 307.63,-190.12 311.08,-196.21"/>
<text xml:space="preserve" text-anchor="middle" x="197.5" y="-561.4" font-family="Helvetica,sans-Serif" font-size="8.00" fill="#475569">PART_OF</text>
</g>
<!-- User_60214 -->
<g id="node8" class="node">
<title>User_60214</title>
<path fill="#2563eb" stroke="#2563eb" d="M381.12,-479C381.12,-479 347.12,-479 347.12,-479 341.12,-479 335.12,-473 335.12,-467 335.12,-467 335.12,-455 335.12,-455 335.12,-449 341.12,-443 347.12,-443 347.12,-443 381.12,-443 381.12,-443 387.12,-443 393.12,-449 393.12,-455 393.12,-455 393.12,-467 393.12,-467 393.12,-473 387.12,-479 381.12,-479"/>
<text xml:space="preserve" text-anchor="middle" x="364.12" y="-462.75" font-family="Helvetica,sans-Serif" font-size="10.00" fill="white">User</text>
<text xml:space="preserve" text-anchor="middle" x="364.12" y="-451.5" font-family="Helvetica,sans-Serif" font-size="10.00" fill="white">vibranium</text>
</g>
<!-- F_13f3cf7c&#45;&gt;User_60214 -->
<g id="edge10" class="edge">
<title>F_13f3cf7c&#45;&gt;User_60214</title>
<path fill="none" stroke="#94a3b8" d="M123.12,-653.12C155.91,-659.39 197.14,-661.64 229.75,-645 238.19,-640.69 309.13,-539.15 343.97,-488.8"/>
<polygon fill="#94a3b8" stroke="#94a3b8" points="346.76,-490.91 349.57,-480.7 341,-486.93 346.76,-490.91"/>
<text xml:space="preserve" text-anchor="middle" x="197.5" y="-659.19" font-family="Helvetica,sans-Serif" font-size="8.00" fill="#475569">SUPPORTED_BY</text>
</g>
<!-- F_13f3cf7c&#45;&gt;User_60214 -->
<g id="edge11" class="edge">
<title>F_13f3cf7c&#45;&gt;User_60214</title>
<path fill="none" stroke="#94a3b8" d="M122.82,-615.67C162.08,-600.26 210.9,-580.26 229.75,-569 269.51,-545.26 310.16,-510.53 335.95,-486.91"/>
<polygon fill="#94a3b8" stroke="#94a3b8" points="338.04,-489.75 343,-480.39 333.29,-484.62 338.04,-489.75"/>
<text xml:space="preserve" text-anchor="middle" x="197.5" y="-599.38" font-family="Helvetica,sans-Serif" font-size="8.00" fill="#475569">SUPPORTED_BY</text>
</g>
<!-- Host_45691 -->
<g id="node10" class="node">
<title>Host_45691</title>
<path fill="#0891b2" stroke="#0891b2" d="M453.5,-733C453.5,-733 274.75,-733 274.75,-733 268.75,-733 262.75,-727 262.75,-721 262.75,-721 262.75,-709 262.75,-709 262.75,-703 268.75,-697 274.75,-697 274.75,-697 453.5,-697 453.5,-697 459.5,-697 465.5,-703 465.5,-709 465.5,-709 465.5,-721 465.5,-721 465.5,-727 459.5,-733 453.5,-733"/>
<text xml:space="preserve" text-anchor="middle" x="364.12" y="-716.75" font-family="Helvetica,sans-Serif" font-size="10.00" fill="white">Host</text>
<text xml:space="preserve" text-anchor="middle" x="364.12" y="-705.5" font-family="Helvetica,sans-Serif" font-size="10.00" fill="white">WKS&#45;WIN764BITB.SHIELDBASE.LOCAL</text>
</g>
<!-- F_13f3cf7c&#45;&gt;Host_45691 -->
<g id="edge12" class="edge">
<title>F_13f3cf7c&#45;&gt;Host_45691</title>
<path fill="none" stroke="#94a3b8" d="M102.78,-658.25C120.91,-668.14 143.63,-679.21 165.25,-686 192.52,-694.56 222.71,-700.62 251.13,-704.89"/>
<polygon fill="#94a3b8" stroke="#94a3b8" points="250.45,-708.33 260.84,-706.29 251.44,-701.4 250.45,-708.33"/>
<text xml:space="preserve" text-anchor="middle" x="197.5" y="-702.69" font-family="Helvetica,sans-Serif" font-size="8.00" fill="#475569">SUPPORTED_BY</text>
</g>
<!-- F_60c6682f -->
<g id="node3" class="node">
<title>F_60c6682f</title>
<path fill="#7c3aed" stroke="#7c3aed" d="M110.88,-520.88C110.88,-520.88 21.38,-520.88 21.38,-520.88 15.38,-520.88 9.38,-514.88 9.38,-508.88 9.38,-508.88 9.38,-491.12 9.38,-491.12 9.38,-485.12 15.38,-479.12 21.38,-479.12 21.38,-479.12 110.88,-479.12 110.88,-479.12 116.88,-479.12 122.88,-485.12 122.88,-491.12 122.88,-491.12 122.88,-508.88 122.88,-508.88 122.88,-514.88 116.88,-520.88 110.88,-520.88"/>
<text xml:space="preserve" text-anchor="middle" x="66.12" y="-507.38" font-family="Helvetica,sans-Serif" font-size="10.00" fill="white">Finding</text>
<text xml:space="preserve" text-anchor="middle" x="66.12" y="-496.12" font-family="Helvetica,sans-Serif" font-size="10.00" fill="white">lateral_movement</text>
<text xml:space="preserve" text-anchor="middle" x="66.12" y="-484.88" font-family="Helvetica,sans-Serif" font-size="10.00" fill="white">CONFIRMED (T1021)</text>
</g>
<!-- F_60c6682f&#45;&gt;INC -->
<g id="edge2" class="edge">
<title>F_60c6682f&#45;&gt;INC</title>
<path fill="none" stroke="#94a3b8" d="M95.01,-478.79C108.41,-467.07 123.44,-451.37 132.25,-434 173.98,-351.69 104.54,-298.5 165.25,-229 198.82,-190.57 256.1,-176.32 300.42,-171.25"/>
<polygon fill="#94a3b8" stroke="#94a3b8" points="300.57,-174.75 310.17,-170.27 299.88,-167.78 300.57,-174.75"/>
<text xml:space="preserve" text-anchor="middle" x="197.5" y="-230.4" font-family="Helvetica,sans-Serif" font-size="8.00" fill="#475569">PART_OF</text>
</g>
<!-- F_60c6682f&#45;&gt;User_60214 -->
<g id="edge7" class="edge">
<title>F_60c6682f&#45;&gt;User_60214</title>
<path fill="none" stroke="#94a3b8" d="M123.04,-499.19C154.51,-498.17 194.46,-495.91 229.75,-491 261.69,-486.55 297.31,-478.38 323.69,-471.68"/>
<polygon fill="#94a3b8" stroke="#94a3b8" points="324.49,-475.09 333.29,-469.2 322.73,-468.31 324.49,-475.09"/>
<text xml:space="preserve" text-anchor="middle" x="197.5" y="-498.47" font-family="Helvetica,sans-Serif" font-size="8.00" fill="#475569">SUPPORTED_BY</text>
</g>
<!-- F_60c6682f&#45;&gt;User_60214 -->
<g id="edge8" class="edge">
<title>F_60c6682f&#45;&gt;User_60214</title>
<path fill="none" stroke="#94a3b8" d="M123.3,-488.94C137,-486.45 151.62,-483.97 165.25,-482 219.9,-474.1 283.45,-467.88 323.48,-464.32"/>
<polygon fill="#94a3b8" stroke="#94a3b8" points="323.7,-467.81 333.35,-463.45 323.09,-460.84 323.7,-467.81"/>
<text xml:space="preserve" text-anchor="middle" x="197.5" y="-483.4" font-family="Helvetica,sans-Serif" font-size="8.00" fill="#475569">SUPPORTED_BY</text>
</g>
<!-- Host_98774 -->
<g id="node9" class="node">
<title>Host_98774</title>
<path fill="#0891b2" stroke="#0891b2" d="M453.12,-655C453.12,-655 275.12,-655 275.12,-655 269.12,-655 263.12,-649 263.12,-643 263.12,-643 263.12,-631 263.12,-631 263.12,-625 269.12,-619 275.12,-619 275.12,-619 453.12,-619 453.12,-619 459.12,-619 465.12,-625 465.12,-631 465.12,-631 465.12,-643 465.12,-643 465.12,-649 459.12,-655 453.12,-655"/>
<text xml:space="preserve" text-anchor="middle" x="364.12" y="-638.75" font-family="Helvetica,sans-Serif" font-size="10.00" fill="white">Host</text>
<text xml:space="preserve" text-anchor="middle" x="364.12" y="-627.5" font-family="Helvetica,sans-Serif" font-size="10.00" fill="white">WKS&#45;WIN732BITA.SHIELDBASE.LOCAL</text>
</g>
<!-- F_60c6682f&#45;&gt;Host_98774 -->
<g id="edge9" class="edge">
<title>F_60c6682f&#45;&gt;Host_98774</title>
<path fill="none" stroke="#94a3b8" d="M79.75,-521.08C96.08,-546.29 127.02,-587.64 165.25,-608 191.47,-621.97 222.27,-629.84 251.66,-634.12"/>
<polygon fill="#94a3b8" stroke="#94a3b8" points="250.97,-637.56 261.34,-635.4 251.88,-630.62 250.97,-637.56"/>
<text xml:space="preserve" text-anchor="middle" x="197.5" y="-630.99" font-family="Helvetica,sans-Serif" font-size="8.00" fill="#475569">SUPPORTED_BY</text>
</g>
<!-- F_fb538e08 -->
<g id="node4" class="node">
<title>F_fb538e08</title>
<path fill="#7c3aed" stroke="#7c3aed" d="M110.88,-306.88C110.88,-306.88 21.38,-306.88 21.38,-306.88 15.38,-306.88 9.38,-300.88 9.38,-294.88 9.38,-294.88 9.38,-277.12 9.38,-277.12 9.38,-271.12 15.38,-265.12 21.38,-265.12 21.38,-265.12 110.88,-265.12 110.88,-265.12 116.88,-265.12 122.88,-271.12 122.88,-277.12 122.88,-277.12 122.88,-294.88 122.88,-294.88 122.88,-300.88 116.88,-306.88 110.88,-306.88"/>
<text xml:space="preserve" text-anchor="middle" x="66.12" y="-293.38" font-family="Helvetica,sans-Serif" font-size="10.00" fill="white">Finding</text>
<text xml:space="preserve" text-anchor="middle" x="66.12" y="-282.12" font-family="Helvetica,sans-Serif" font-size="10.00" fill="white">lateral_movement</text>
<text xml:space="preserve" text-anchor="middle" x="66.12" y="-270.88" font-family="Helvetica,sans-Serif" font-size="10.00" fill="white">CONFIRMED (T1021)</text>
</g>
<!-- F_fb538e08&#45;&gt;INC -->
<g id="edge3" class="edge">
<title>F_fb538e08&#45;&gt;INC</title>
<path fill="none" stroke="#94a3b8" d="M77.56,-264.85C92.58,-237.1 123.19,-189.64 165.25,-170 207.27,-150.38 259.99,-151.17 300.45,-156.31"/>
<polygon fill="#94a3b8" stroke="#94a3b8" points="299.9,-159.76 310.29,-157.69 300.87,-152.83 299.9,-159.76"/>
<text xml:space="preserve" text-anchor="middle" x="197.5" y="-171.4" font-family="Helvetica,sans-Serif" font-size="8.00" fill="#475569">PART_OF</text>
</g>
<!-- F_fb538e08&#45;&gt;User_60214 -->
<g id="edge14" class="edge">
<title>F_fb538e08&#45;&gt;User_60214</title>
<path fill="none" stroke="#94a3b8" d="M103.12,-307.28C159.37,-340.54 267.6,-404.52 325.08,-438.51"/>
<polygon fill="#94a3b8" stroke="#94a3b8" points="323.17,-441.44 333.56,-443.52 326.73,-435.42 323.17,-441.44"/>
<text xml:space="preserve" text-anchor="middle" x="197.5" y="-380.15" font-family="Helvetica,sans-Serif" font-size="8.00" fill="#475569">SUPPORTED_BY</text>
</g>
<!-- F_fb538e08&#45;&gt;User_60214 -->
<g id="edge16" class="edge">
<title>F_fb538e08&#45;&gt;User_60214</title>
<path fill="none" stroke="#94a3b8" d="M123.24,-295.24C155.87,-302.27 196.91,-314.06 229.75,-333 275.66,-359.47 317.84,-405.05 341.99,-434.07"/>
<polygon fill="#94a3b8" stroke="#94a3b8" points="339.19,-436.17 348.23,-441.7 344.61,-431.74 339.19,-436.17"/>
<text xml:space="preserve" text-anchor="middle" x="197.5" y="-334.4" font-family="Helvetica,sans-Serif" font-size="8.00" fill="#475569">SUPPORTED_BY</text>
</g>
<!-- Host_17749 -->
<g id="node12" class="node">
<title>Host_17749</title>
<path fill="#0891b2" stroke="#0891b2" d="M445.25,-284C445.25,-284 283,-284 283,-284 277,-284 271,-278 271,-272 271,-272 271,-260 271,-260 271,-254 277,-248 283,-248 283,-248 445.25,-248 445.25,-248 451.25,-248 457.25,-254 457.25,-260 457.25,-260 457.25,-272 457.25,-272 457.25,-278 451.25,-284 445.25,-284"/>
<text xml:space="preserve" text-anchor="middle" x="364.12" y="-267.75" font-family="Helvetica,sans-Serif" font-size="10.00" fill="white">Host</text>
<text xml:space="preserve" text-anchor="middle" x="364.12" y="-256.5" font-family="Helvetica,sans-Serif" font-size="10.00" fill="white">CONTROLLER.SHIELDBASE.LOCAL</text>
</g>
<!-- F_fb538e08&#45;&gt;Host_17749 -->
<g id="edge15" class="edge">
<title>F_fb538e08&#45;&gt;Host_17749</title>
<path fill="none" stroke="#94a3b8" d="M111.53,-264.8C128.01,-258.02 147.11,-251.39 165.25,-248 196.66,-242.13 231.24,-242.87 262.59,-246.19"/>
<polygon fill="#94a3b8" stroke="#94a3b8" points="262.14,-249.66 272.48,-247.35 262.96,-242.71 262.14,-249.66"/>
<text xml:space="preserve" text-anchor="middle" x="197.5" y="-249.4" font-family="Helvetica,sans-Serif" font-size="8.00" fill="#475569">SUPPORTED_BY</text>
</g>
<!-- F_01121f24 -->
<g id="node5" class="node">
<title>F_01121f24</title>
<path fill="#7c3aed" stroke="#7c3aed" d="M120.25,-127.88C120.25,-127.88 12,-127.88 12,-127.88 6,-127.88 0,-121.88 0,-115.88 0,-115.88 0,-98.12 0,-98.12 0,-92.12 6,-86.12 12,-86.12 12,-86.12 120.25,-86.12 120.25,-86.12 126.25,-86.12 132.25,-92.12 132.25,-98.12 132.25,-98.12 132.25,-115.88 132.25,-115.88 132.25,-121.88 126.25,-127.88 120.25,-127.88"/>
<text xml:space="preserve" text-anchor="middle" x="66.12" y="-114.38" font-family="Helvetica,sans-Serif" font-size="10.00" fill="white">Finding</text>
<text xml:space="preserve" text-anchor="middle" x="66.12" y="-103.12" font-family="Helvetica,sans-Serif" font-size="10.00" fill="white">defense_evasion</text>
<text xml:space="preserve" text-anchor="middle" x="66.12" y="-91.88" font-family="Helvetica,sans-Serif" font-size="10.00" fill="white">CONFIRMED (T1070.004)</text>
</g>
<!-- F_01121f24&#45;&gt;INC -->
<g id="edge4" class="edge">
<title>F_01121f24&#45;&gt;INC</title>
<path fill="none" stroke="#94a3b8" d="M132.37,-114.64C162.22,-118.64 197.94,-124.15 229.75,-131 253.11,-136.03 278.4,-142.87 300.61,-149.36"/>
<polygon fill="#94a3b8" stroke="#94a3b8" points="299.55,-152.7 310.13,-152.18 301.54,-145.98 299.55,-152.7"/>
<text xml:space="preserve" text-anchor="middle" x="197.5" y="-132.4" font-family="Helvetica,sans-Serif" font-size="8.00" fill="#475569">PART_OF</text>
</g>
<!-- Executable_45178 -->
<g id="node11" class="node">
<title>Executable_45178</title>
<path fill="#0891b2" stroke="#0891b2" d="M384.5,-101C384.5,-101 343.75,-101 343.75,-101 337.75,-101 331.75,-95 331.75,-89 331.75,-89 331.75,-77 331.75,-77 331.75,-71 337.75,-65 343.75,-65 343.75,-65 384.5,-65 384.5,-65 390.5,-65 396.5,-71 396.5,-77 396.5,-77 396.5,-89 396.5,-89 396.5,-95 390.5,-101 384.5,-101"/>
<text xml:space="preserve" text-anchor="middle" x="364.12" y="-84.75" font-family="Helvetica,sans-Serif" font-size="10.00" fill="white">Executable</text>
<text xml:space="preserve" text-anchor="middle" x="364.12" y="-73.5" font-family="Helvetica,sans-Serif" font-size="10.00" fill="white">~bcwipe</text>
</g>
<!-- F_01121f24&#45;&gt;Executable_45178 -->
<g id="edge13" class="edge">
<title>F_01121f24&#45;&gt;Executable_45178</title>
<path fill="none" stroke="#94a3b8" d="M132.72,-95.99C143.56,-94.45 154.7,-93.04 165.25,-92 218.4,-86.74 279.88,-84.55 320.03,-83.64"/>
<polygon fill="#94a3b8" stroke="#94a3b8" points="320.08,-87.14 330.01,-83.44 319.94,-80.14 320.08,-87.14"/>
<text xml:space="preserve" text-anchor="middle" x="197.5" y="-93.4" font-family="Helvetica,sans-Serif" font-size="8.00" fill="#475569">SUPPORTED_BY</text>
</g>
<!-- F_07693bbf -->
<g id="node6" class="node">
<title>F_07693bbf</title>
<path fill="#7c3aed" stroke="#7c3aed" d="M120.25,-55.88C120.25,-55.88 12,-55.88 12,-55.88 6,-55.88 0,-49.88 0,-43.88 0,-43.88 0,-26.13 0,-26.13 0,-20.12 6,-14.12 12,-14.12 12,-14.12 120.25,-14.12 120.25,-14.12 126.25,-14.12 132.25,-20.12 132.25,-26.12 132.25,-26.12 132.25,-43.88 132.25,-43.88 132.25,-49.88 126.25,-55.88 120.25,-55.88"/>
<text xml:space="preserve" text-anchor="middle" x="66.12" y="-42.38" font-family="Helvetica,sans-Serif" font-size="10.00" fill="white">Finding</text>
<text xml:space="preserve" text-anchor="middle" x="66.12" y="-31.12" font-family="Helvetica,sans-Serif" font-size="10.00" fill="white">defense_evasion</text>
<text xml:space="preserve" text-anchor="middle" x="66.12" y="-19.88" font-family="Helvetica,sans-Serif" font-size="10.00" fill="white">CONFIRMED (T1070.004)</text>
</g>
<!-- F_07693bbf&#45;&gt;INC -->
<g id="edge5" class="edge">
<title>F_07693bbf&#45;&gt;INC</title>
<path fill="none" stroke="#94a3b8" d="M132.38,-39.67C163.76,-44.36 200.76,-53.65 229.75,-72 249.81,-84.7 244.64,-98.65 262.75,-114 277.06,-126.13 294.47,-136.79 310.74,-145.42"/>
<polygon fill="#94a3b8" stroke="#94a3b8" points="308.85,-148.38 319.34,-149.83 312.04,-142.15 308.85,-148.38"/>
<text xml:space="preserve" text-anchor="middle" x="197.5" y="-73.4" font-family="Helvetica,sans-Serif" font-size="8.00" fill="#475569">PART_OF</text>
</g>
<!-- Executable_17070 -->
<g id="node7" class="node">
<title>Executable_17070</title>
<path fill="#0891b2" stroke="#0891b2" d="M392.38,-36C392.38,-36 335.88,-36 335.88,-36 329.88,-36 323.88,-30 323.88,-24 323.88,-24 323.88,-12 323.88,-12 323.88,-6 329.88,0 335.88,0 335.88,0 392.38,0 392.38,0 398.38,0 404.38,-6 404.38,-12 404.38,-12 404.38,-24 404.38,-24 404.38,-30 398.38,-36 392.38,-36"/>
<text xml:space="preserve" text-anchor="middle" x="364.12" y="-19.75" font-family="Helvetica,sans-Serif" font-size="10.00" fill="white">Executable</text>
<text xml:space="preserve" text-anchor="middle" x="364.12" y="-8.5" font-family="Helvetica,sans-Serif" font-size="10.00" fill="white">BCWipeTM.ex</text>
</g>
<!-- F_07693bbf&#45;&gt;Executable_17070 -->
<g id="edge6" class="edge">
<title>F_07693bbf&#45;&gt;Executable_17070</title>
<path fill="none" stroke="#94a3b8" d="M132.53,-19.01C143.4,-16.93 154.6,-15.13 165.25,-14 215.01,-8.74 272.19,-10.75 312.24,-13.47"/>
<polygon fill="#94a3b8" stroke="#94a3b8" points="311.84,-16.95 322.07,-14.18 312.35,-9.97 311.84,-16.95"/>
<text xml:space="preserve" text-anchor="middle" x="197.5" y="-15.4" font-family="Helvetica,sans-Serif" font-size="8.00" fill="#475569">SUPPORTED_BY</text>
</g>
<!-- A_22175 -->
<g id="node13" class="node">
<title>A_22175</title>
<path fill="#64748b" stroke="#64748b" d="M669.75,-66C669.75,-66 608,-66 608,-66 602,-66 596,-60 596,-54 596,-54 596,-42 596,-42 596,-36 602,-30 608,-30 608,-30 669.75,-30 669.75,-30 675.75,-30 681.75,-36 681.75,-42 681.75,-42 681.75,-54 681.75,-54 681.75,-60 675.75,-66 669.75,-66"/>
<text xml:space="preserve" text-anchor="middle" x="638.88" y="-49.75" font-family="Helvetica,sans-Serif" font-size="10.00" fill="white">Artifact</text>
<text xml:space="preserve" text-anchor="middle" x="638.88" y="-38.5" font-family="Helvetica,sans-Serif" font-size="10.00" fill="white">nromanoff.njson</text>
</g>
<!-- Executable_17070&#45;&gt;A_22175 -->
<g id="edge17" class="edge">
<title>Executable_17070&#45;&gt;A_22175</title>
<path fill="none" stroke="#94a3b8" stroke-dasharray="5,2" d="M404.83,-16.76C444.99,-16.18 508.72,-17.07 563,-26 570.02,-27.15 577.31,-28.76 584.46,-30.59"/>
<polygon fill="#94a3b8" stroke="#94a3b8" points="583.5,-33.95 594.07,-33.2 585.34,-27.2 583.5,-33.95"/>
<text xml:space="preserve" text-anchor="middle" x="530.75" y="-36.4" font-family="Helvetica,sans-Serif" font-size="8.00" fill="#475569">DERIVED_FROM</text>
<text xml:space="preserve" text-anchor="middle" x="530.75" y="-27.4" font-family="Helvetica,sans-Serif" font-size="8.00" fill="#475569">line 1077499</text>
</g>
<!-- Executable_45178&#45;&gt;A_22175 -->
<g id="edge18" class="edge">
<title>Executable_45178&#45;&gt;A_22175</title>
<path fill="none" stroke="#94a3b8" stroke-dasharray="5,2" d="M396.95,-78.92C442.96,-73.01 528.66,-62.01 584.46,-54.85"/>
<polygon fill="#94a3b8" stroke="#94a3b8" points="584.58,-58.37 594.05,-53.62 583.68,-51.43 584.58,-58.37"/>
<text xml:space="preserve" text-anchor="middle" x="530.75" y="-75.9" font-family="Helvetica,sans-Serif" font-size="8.00" fill="#475569">DERIVED_FROM</text>
<text xml:space="preserve" text-anchor="middle" x="530.75" y="-66.9" font-family="Helvetica,sans-Serif" font-size="8.00" fill="#475569">line 1077525</text>
</g>
<!-- CL_109e6e3e -->
<g id="node14" class="node">
<title>CL_109e6e3e</title>
<path fill="#7c3aed" stroke="#7c3aed" d="M92.88,-421C92.88,-421 39.38,-421 39.38,-421 33.38,-421 27.38,-415 27.38,-409 27.38,-409 27.38,-397 27.38,-397 27.38,-391 33.38,-385 39.38,-385 39.38,-385 92.88,-385 92.88,-385 98.88,-385 104.88,-391 104.88,-397 104.88,-397 104.88,-409 104.88,-409 104.88,-415 98.88,-421 92.88,-421"/>
<text xml:space="preserve" text-anchor="middle" x="66.12" y="-404.75" font-family="Helvetica,sans-Serif" font-size="10.00" fill="white">Claim</text>
<text xml:space="preserve" text-anchor="middle" x="66.12" y="-393.5" font-family="Helvetica,sans-Serif" font-size="10.00" fill="white">CONFIRMED</text>
</g>
<!-- CL_109e6e3e&#45;&gt;User_60214 -->
<g id="edge19" class="edge">
<title>CL_109e6e3e&#45;&gt;User_60214</title>
<path fill="none" stroke="#94a3b8" d="M105.22,-410.46C161.6,-421.51 266.75,-442.12 323.82,-453.3"/>
<polygon fill="#94a3b8" stroke="#94a3b8" points="322.93,-456.69 333.42,-455.18 324.28,-449.82 322.93,-456.69"/>
<text xml:space="preserve" text-anchor="middle" x="197.5" y="-435.14" font-family="Helvetica,sans-Serif" font-size="8.00" fill="#475569">ABOUT</text>
</g>
<!-- CL_109e6e3e&#45;&gt;User_60214 -->
<g id="edge20" class="edge">
<title>CL_109e6e3e&#45;&gt;User_60214</title>
<path fill="none" stroke="#94a3b8" d="M105.35,-400.48C138.59,-399.15 187.85,-399.31 229.75,-408 262.88,-414.87 298.39,-429.36 324.43,-441.46"/>
<polygon fill="#94a3b8" stroke="#94a3b8" points="322.73,-444.52 333.26,-445.65 325.73,-438.2 322.73,-444.52"/>
<text xml:space="preserve" text-anchor="middle" x="197.5" y="-409.4" font-family="Helvetica,sans-Serif" font-size="8.00" fill="#475569">ABOUT</text>
</g>
<!-- CL_109e6e3e&#45;&gt;Host_17749 -->
<g id="edge21" class="edge">
<title>CL_109e6e3e&#45;&gt;Host_17749</title>
<path fill="none" stroke="#94a3b8" d="M81.51,-384.52C106,-353.28 154.24,-292.83 165.25,-287 193.79,-271.88 227.87,-265 259.64,-262.37"/>
<polygon fill="#94a3b8" stroke="#94a3b8" points="259.52,-265.88 269.25,-261.71 259.04,-258.9 259.52,-265.88"/>
<text xml:space="preserve" text-anchor="middle" x="197.5" y="-288.4" font-family="Helvetica,sans-Serif" font-size="8.00" fill="#475569">ABOUT</text>
</g>
</g>
</svg>
