<?xml version="1.0" encoding="UTF-8" standalone="no"?>
<!DOCTYPE svg PUBLIC "-//W3C//DTD SVG 1.1//EN"
 "http://www.w3.org/Graphics/SVG/1.1/DTD/svg11.dtd">
<!-- Generated by graphviz version 14.1.5 (20260411.2331)
 -->
<!-- Title: graphir_schema Pages: 1 -->
<svg width="739pt" height="784pt"
 viewBox="0.00 0.00 739.00 784.00" xmlns="http://www.w3.org/2000/svg" xmlns:xlink="http://www.w3.org/1999/xlink">
<g id="graph0" class="graph" transform="scale(1 1) rotate(0) translate(28.8 755.55)">
<title>graphir_schema</title>
<polygon fill="white" stroke="none" points="-28.8,28.8 -28.8,-755.55 710.3,-755.55 710.3,28.8 -28.8,28.8"/>
<text xml:space="preserve" text-anchor="start" x="64.75" y="-707.55" font-family="Helvetica,sans-Serif" font-weight="bold" font-size="16.00">graphir graph schema — 13 vertex types, 15 edge types</text>
<text xml:space="preserve" text-anchor="start" x="64.75" y="-691.05" font-family="Helvetica,sans-Serif" font-weight="bold" font-size="16.00">fractal: Incident &#45;&gt; Finding &#45;&gt; entity &#45;&gt; Artifact (case narrative to raw line)</text>
<g id="clust1" class="cluster">
<title>cluster_L0</title>
<path fill="white" stroke="#7c3aed" stroke-dasharray="5,2" d="M298,-488.5C298,-488.5 445,-488.5 445,-488.5 451,-488.5 457,-494.5 457,-500.5 457,-500.5 457,-665.75 457,-665.75 457,-671.75 451,-677.75 445,-677.75 445,-677.75 298,-677.75 298,-677.75 292,-677.75 286,-671.75 286,-665.75 286,-665.75 286,-500.5 286,-500.5 286,-494.5 292,-488.5 298,-488.5"/>
<text xml:space="preserve" text-anchor="middle" x="371.5" y="-662.35" font-family="Helvetica,sans-Serif" font-weight="bold" font-size="12.00" fill="#7c3aed">L0 — INVESTIGATION</text>
</g>
<g id="clust2" class="cluster">
<title>cluster_L1</title>
<path fill="white" stroke="#2563eb" stroke-dasharray="5,2" d="M198,-360.25C198,-360.25 460,-360.25 460,-360.25 466,-360.25 472,-366.25 472,-372.25 472,-372.25 472,-441.75 472,-441.75 472,-447.75 466,-453.75 460,-453.75 460,-453.75 198,-453.75 198,-453.75 192,-453.75 186,-447.75 186,-441.75 186,-441.75 186,-372.25 186,-372.25 186,-366.25 192,-360.25 198,-360.25"/>
<text xml:space="preserve" text-anchor="middle" x="329" y="-438.35" font-family="Helvetica,sans-Serif" font-weight="bold" font-size="12.00" fill="#2563eb">L1 — BEHAVIOUR</text>
</g>
<g id="clust3" class="cluster">
<title>cluster_L2</title>
<path fill="white" stroke="#0891b2" stroke-dasharray="5,2" d="M322,-8C322,-8 560,-8 560,-8 566,-8 572,-14 572,-20 572,-20 572,-313.5 572,-313.5 572,-319.5 566,-325.5 560,-325.5 560,-325.5 322,-325.5 322,-325.5 316,-325.5 310,-319.5 310,-313.5 310,-313.5 310,-20 310,-20 310,-14 316,-8 322,-8"/>
<text xml:space="preserve" text-anchor="middle" x="441" y="-310.1" font-family="Helvetica,sans-Serif" font-weight="bold" font-size="12.00" fill="#0891b2">L2 — SUBSTANCE</text>
</g>
<g id="clust4" class="cluster">
<title>cluster_L3</title>
<path fill="white" stroke="#64748b" stroke-dasharray="5,2" d="M20,-8C20,-8 211,-8 211,-8 217,-8 223,-14 223,-20 223,-20 223,-89.5 223,-89.5 223,-95.5 217,-101.5 211,-101.5 211,-101.5 20,-101.5 20,-101.5 14,-101.5 8,-95.5 8,-89.5 8,-89.5 8,-20 8,-20 8,-14 14,-8 20,-8"/>
<text xml:space="preserve" text-anchor="middle" x="115.5" y="-86.1" font-family="Helvetica,sans-Serif" font-weight="bold" font-size="12.00" fill="#64748b">L3 — EVIDENCE</text>
</g>
<!-- Incident -->
<g id="node1" class="node">
<title>Incident</title>
<path fill="#7c3aed" stroke="#7c3aed" d="M420,-532.5C420,-532.5 390,-532.5 390,-532.5 384,-532.5 378,-526.5 378,-520.5 378,-520.5 378,-508.5 378,-508.5 378,-502.5 384,-496.5 390,-496.5 390,-496.5 420,-496.5 420,-496.5 426,-496.5 432,-502.5 432,-508.5 432,-508.5 432,-520.5 432,-520.5 432,-526.5 426,-532.5 420,-532.5"/>
<text xml:space="preserve" text-anchor="middle" x="405" y="-510.05" font-family="Helvetica,sans-Serif" font-size="11.00" fill="white">Incident</text>
</g>
<!-- Finding -->
<g id="node2" class="node">
<title>Finding</title>
<path fill="#7c3aed" stroke="#7c3aed" d="M437,-628.25C437,-628.25 407,-628.25 407,-628.25 401,-628.25 395,-622.25 395,-616.25 395,-616.25 395,-604.25 395,-604.25 395,-598.25 401,-592.25 407,-592.25 407,-592.25 437,-592.25 437,-592.25 443,-592.25 449,-598.25 449,-604.25 449,-604.25 449,-616.25 449,-616.25 449,-622.25 443,-628.25 437,-628.25"/>
<text xml:space="preserve" text-anchor="middle" x="422" y="-605.8" font-family="Helvetica,sans-Serif" font-size="11.00" fill="white">Finding</text>
</g>
<!-- Finding&#45;&gt;Incident -->
<g id="edge1" class="edge">
<title>Finding&#45;&gt;Incident</title>
<path fill="none" stroke="#94a3b8" d="M418.88,-592.05C416.45,-578.66 413.03,-559.77 410.19,-544.11"/>
<polygon fill="#94a3b8" stroke="#94a3b8" points="413.65,-543.61 408.43,-534.39 406.77,-544.86 413.65,-543.61"/>
<text xml:space="preserve" text-anchor="middle" x="434.63" y="-558.7" font-family="Helvetica,sans-Serif" font-size="9.00" fill="#475569">PART_OF</text>
</g>
<!-- User -->
<g id="node5" class="node">
<title>User</title>
<path fill="#2563eb" stroke="#2563eb" d="M452,-404.25C452,-404.25 422,-404.25 422,-404.25 416,-404.25 410,-398.25 410,-392.25 410,-392.25 410,-380.25 410,-380.25 410,-374.25 416,-368.25 422,-368.25 422,-368.25 452,-368.25 452,-368.25 458,-368.25 464,-374.25 464,-380.25 464,-380.25 464,-392.25 464,-392.25 464,-398.25 458,-404.25 452,-404.25"/>
<text xml:space="preserve" text-anchor="middle" x="437" y="-381.8" font-family="Helvetica,sans-Serif" font-size="11.00" fill="white">User</text>
</g>
<!-- Finding&#45;&gt;User -->
<g id="edge2" class="edge">
<title>Finding&#45;&gt;User</title>
<path fill="none" stroke="#94a3b8" d="M444.29,-591.88C451.34,-585.05 458.26,-576.6 462,-567.25 482.44,-516.15 463.41,-451.1 449.22,-414.85"/>
<polygon fill="#94a3b8" stroke="#94a3b8" points="452.61,-413.91 445.59,-405.97 446.13,-416.55 452.61,-413.91"/>
<text xml:space="preserve" text-anchor="middle" x="507.7" y="-510.82" font-family="Helvetica,sans-Serif" font-size="9.00" fill="#475569">SUPPORTED_BY</text>
</g>
<!-- Executable -->
<g id="node8" class="node">
<title>Executable</title>
<path fill="#0891b2" stroke="#0891b2" d="M375.62,-180.25C375.62,-180.25 330.38,-180.25 330.38,-180.25 324.38,-180.25 318.38,-174.25 318.38,-168.25 318.38,-168.25 318.38,-156.25 318.38,-156.25 318.38,-150.25 324.38,-144.25 330.38,-144.25 330.38,-144.25 375.62,-144.25 375.62,-144.25 381.62,-144.25 387.62,-150.25 387.62,-156.25 387.62,-156.25 387.62,-168.25 387.62,-168.25 387.62,-174.25 381.62,-180.25 375.62,-180.25"/>
<text xml:space="preserve" text-anchor="middle" x="353" y="-157.8" font-family="Helvetica,sans-Serif" font-size="11.00" fill="white">Executable</text>
</g>
<!-- Finding&#45;&gt;Executable -->
<g id="edge3" class="edge">
<title>Finding&#45;&gt;Executable</title>
<path fill="none" stroke="#94a3b8" d="M449.44,-607.76C501.18,-603.32 608,-585.65 608,-515.5 608,-515.5 608,-515.5 608,-257 608,-213.01 472.63,-183.35 399.15,-170.5"/>
<polygon fill="#94a3b8" stroke="#94a3b8" points="399.86,-167.07 389.41,-168.83 398.68,-173.97 399.86,-167.07"/>
<text xml:space="preserve" text-anchor="middle" x="644.75" y="-382.57" font-family="Helvetica,sans-Serif" font-size="9.00" fill="#475569">SUPPORTED_BY</text>
</g>
<!-- Correction -->
<g id="node3" class="node">
<title>Correction</title>
<path fill="#7c3aed" stroke="#7c3aed" d="M348.12,-628.25C348.12,-628.25 305.88,-628.25 305.88,-628.25 299.88,-628.25 293.88,-622.25 293.88,-616.25 293.88,-616.25 293.88,-604.25 293.88,-604.25 293.88,-598.25 299.88,-592.25 305.88,-592.25 305.88,-592.25 348.12,-592.25 348.12,-592.25 354.12,-592.25 360.12,-598.25 360.12,-604.25 360.12,-604.25 360.12,-616.25 360.12,-616.25 360.12,-622.25 354.12,-628.25 348.12,-628.25"/>
<text xml:space="preserve" text-anchor="middle" x="327" y="-605.8" font-family="Helvetica,sans-Serif" font-size="11.00" fill="white">Correction</text>
</g>
<!-- Claim -->
<g id="node4" class="node">
<title>Claim</title>
<path fill="#7c3aed" stroke="#7c3aed" d="M337,-532.5C337,-532.5 307,-532.5 307,-532.5 301,-532.5 295,-526.5 295,-520.5 295,-520.5 295,-508.5 295,-508.5 295,-502.5 301,-496.5 307,-496.5 307,-496.5 337,-496.5 337,-496.5 343,-496.5 349,-502.5 349,-508.5 349,-508.5 349,-520.5 349,-520.5 349,-526.5 343,-532.5 337,-532.5"/>
<text xml:space="preserve" text-anchor="middle" x="322" y="-510.05" font-family="Helvetica,sans-Serif" font-size="11.00" fill="white">Claim</text>
</g>
<!-- Correction&#45;&gt;Claim -->
<g id="edge4" class="edge">
<title>Correction&#45;&gt;Claim</title>
<path fill="none" stroke="#94a3b8" d="M324,-592.14C322.81,-584.55 321.58,-575.48 321,-567.25 320.47,-559.81 320.39,-551.75 320.52,-544.27"/>
<polygon fill="#94a3b8" stroke="#94a3b8" points="324.02,-544.39 320.84,-534.28 317.02,-544.17 324.02,-544.39"/>
<text xml:space="preserve" text-anchor="middle" x="346.5" y="-558.7" font-family="Helvetica,sans-Serif" font-size="9.00" fill="#475569">CORRECTS</text>
</g>
<!-- Claim&#45;&gt;User -->
<g id="edge5" class="edge">
<title>Claim&#45;&gt;User</title>
<path fill="none" stroke="#94a3b8" d="M347.05,-496.17C362,-485.09 380.79,-469.82 395,-453.75 405.46,-441.92 415.04,-427.21 422.4,-414.64"/>
<polygon fill="#94a3b8" stroke="#94a3b8" points="425.41,-416.43 427.28,-406 419.31,-412.98 425.41,-416.43"/>
<text xml:space="preserve" text-anchor="middle" x="401.58" y="-462.95" font-family="Helvetica,sans-Serif" font-size="9.00" fill="#475569">ABOUT</text>
</g>
<!-- Host -->
<g id="node7" class="node">
<title>Host</title>
<path fill="#0891b2" stroke="#0891b2" d="M360,-276C360,-276 330,-276 330,-276 324,-276 318,-270 318,-264 318,-264 318,-252 318,-252 318,-246 324,-240 330,-240 330,-240 360,-240 360,-240 366,-240 372,-246 372,-252 372,-252 372,-264 372,-264 372,-270 366,-276 360,-276"/>
<text xml:space="preserve" text-anchor="middle" x="345" y="-253.55" font-family="Helvetica,sans-Serif" font-size="11.00" fill="white">Host</text>
</g>
<!-- User&#45;&gt;Host -->
<g id="edge6" class="edge">
<title>User&#45;&gt;Host</title>
<path fill="none" stroke="#94a3b8" d="M424.4,-367.96C408.93,-346.74 382.54,-310.51 364.46,-285.7"/>
<polygon fill="#94a3b8" stroke="#94a3b8" points="367.35,-283.73 358.63,-277.71 361.69,-287.85 367.35,-283.73"/>
<text xml:space="preserve" text-anchor="middle" x="433.12" y="-334.7" font-family="Helvetica,sans-Serif" font-size="9.00" fill="#475569">LOGGED_ON</text>
</g>
<!-- Process -->
<g id="node6" class="node">
<title>Process</title>
<path fill="#2563eb" stroke="#2563eb" d="M237.5,-404.25C237.5,-404.25 206.5,-404.25 206.5,-404.25 200.5,-404.25 194.5,-398.25 194.5,-392.25 194.5,-392.25 194.5,-380.25 194.5,-380.25 194.5,-374.25 200.5,-368.25 206.5,-368.25 206.5,-368.25 237.5,-368.25 237.5,-368.25 243.5,-368.25 249.5,-374.25 249.5,-380.25 249.5,-380.25 249.5,-392.25 249.5,-392.25 249.5,-398.25 243.5,-404.25 237.5,-404.25"/>
<text xml:space="preserve" text-anchor="middle" x="222" y="-381.8" font-family="Helvetica,sans-Serif" font-size="11.00" fill="white">Process</text>
</g>
<!-- Process&#45;&gt;Process -->
<g id="edge7" class="edge">
<title>Process&#45;&gt;Process</title>
<path fill="none" stroke="#94a3b8" d="M249.91,-390.55C264.87,-391.28 278.5,-389.85 278.5,-386.25 278.5,-383.61 271.15,-382.13 261.32,-381.82"/>
<polygon fill="#94a3b8" stroke="#94a3b8" points="261.38,-378.32 251.42,-381.93 261.46,-385.32 261.38,-378.32"/>
<text xml:space="preserve" text-anchor="middle" x="301" y="-382.57" font-family="Helvetica,sans-Serif" font-size="9.00" fill="#475569">SPAWNED</text>
</g>
<!-- Process&#45;&gt;Process -->
<g id="edge9" class="edge">
<title>Process&#45;&gt;Process</title>
<path fill="none" stroke="#94a3b8" d="M249.88,-392.98C282.44,-397.47 323.5,-395.23 323.5,-386.25 323.5,-378.29 291.21,-375.62 261.2,-378.25"/>
<polygon fill="#94a3b8" stroke="#94a3b8" points="260.94,-374.76 251.39,-379.35 261.71,-381.72 260.94,-374.76"/>
<text xml:space="preserve" text-anchor="middle" x="348.62" y="-382.57" font-family="Helvetica,sans-Serif" font-size="9.00" fill="#475569">ACCESSED</text>
</g>
<!-- Process&#45;&gt;Host -->
<g id="edge8" class="edge">
<title>Process&#45;&gt;Host</title>
<path fill="none" stroke="#94a3b8" d="M238.84,-367.96C259.8,-346.45 295.75,-309.55 319.94,-284.72"/>
<polygon fill="#94a3b8" stroke="#94a3b8" points="322.44,-287.18 326.91,-277.57 317.42,-282.29 322.44,-287.18"/>
<text xml:space="preserve" text-anchor="middle" x="302.99" y="-334.7" font-family="Helvetica,sans-Serif" font-size="9.00" fill="#475569">EXECUTED_ON</text>
</g>
<!-- Host&#45;&gt;Host -->
<g id="edge10" class="edge">
<title>Host&#45;&gt;Host</title>
<path fill="none" stroke="#94a3b8" d="M372.37,-266.58C387.31,-268.11 401,-265.25 401,-258 401,-252.68 393.62,-249.72 383.78,-249.13"/>
<polygon fill="#94a3b8" stroke="#94a3b8" points="383.79,-245.63 373.88,-249.38 383.97,-252.63 383.79,-245.63"/>
<text xml:space="preserve" text-anchor="middle" x="438.5" y="-254.32" font-family="Helvetica,sans-Serif" font-size="9.00" fill="#475569">CONNECTED_TO</text>
</g>
<!-- Host&#45;&gt;Executable -->
<g id="edge11" class="edge">
<title>Host&#45;&gt;Executable</title>
<path fill="none" stroke="#94a3b8" d="M346.47,-239.8C347.61,-226.41 349.22,-207.52 350.56,-191.86"/>
<polygon fill="#94a3b8" stroke="#94a3b8" points="354.02,-192.42 351.39,-182.16 347.05,-191.83 354.02,-192.42"/>
<text xml:space="preserve" text-anchor="middle" x="391.24" y="-206.45" font-family="Helvetica,sans-Serif" font-size="9.00" fill="#475569">HAS_EXECUTABLE</text>
</g>
<!-- File -->
<g id="node9" class="node">
<title>File</title>
<path fill="#0891b2" stroke="#0891b2" d="M460,-52C460,-52 430,-52 430,-52 424,-52 418,-46 418,-40 418,-40 418,-28 418,-28 418,-22 424,-16 430,-16 430,-16 460,-16 460,-16 466,-16 472,-22 472,-28 472,-28 472,-40 472,-40 472,-46 466,-52 460,-52"/>
<text xml:space="preserve" text-anchor="middle" x="445" y="-29.55" font-family="Helvetica,sans-Serif" font-size="11.00" fill="white">File</text>
</g>
<!-- Host&#45;&gt;File -->
<g id="edge12" class="edge">
<title>Host&#45;&gt;File</title>
<path fill="none" stroke="#94a3b8" d="M372.21,-250.11C392.79,-243.78 420.7,-232.65 440,-215 475.89,-182.18 480.84,-166.34 493,-119.25 498.51,-97.93 485.86,-76.41 472.17,-60.45"/>
<polygon fill="#94a3b8" stroke="#94a3b8" points="474.94,-58.29 465.59,-53.31 469.79,-63.04 474.94,-58.29"/>
<text xml:space="preserve" text-anchor="middle" x="507.65" y="-158.57" font-family="Helvetica,sans-Serif" font-size="9.00" fill="#475569">MODIFIED</text>
</g>
<!-- Executable&#45;&gt;File -->
<g id="edge13" class="edge">
<title>Executable&#45;&gt;File</title>
<path fill="none" stroke="#94a3b8" d="M387.69,-143.83C397.95,-137.29 408.45,-129.03 416,-119.25 428.51,-103.03 435.84,-81.04 440,-63.6"/>
<polygon fill="#94a3b8" stroke="#94a3b8" points="443.42,-64.36 442.08,-53.85 436.57,-62.9 443.42,-64.36"/>
<text xml:space="preserve" text-anchor="middle" x="453.69" y="-110.7" font-family="Helvetica,sans-Serif" font-size="9.00" fill="#475569">SAME_BINARY</text>
</g>
<!-- ThreatIntel -->
<g id="node11" class="node">
<title>ThreatIntel</title>
<path fill="#0891b2" stroke="#0891b2" d="M373.88,-52C373.88,-52 330.12,-52 330.12,-52 324.12,-52 318.12,-46 318.12,-40 318.12,-40 318.12,-28 318.12,-28 318.12,-22 324.12,-16 330.12,-16 330.12,-16 373.88,-16 373.88,-16 379.88,-16 385.88,-22 385.88,-28 385.88,-28 385.88,-40 385.88,-40 385.88,-46 379.88,-52 373.88,-52"/>
<text xml:space="preserve" text-anchor="middle" x="352" y="-29.55" font-family="Helvetica,sans-Serif" font-size="11.00" fill="white">ThreatIntel</text>
</g>
<!-- Executable&#45;&gt;ThreatIntel -->
<g id="edge14" class="edge">
<title>Executable&#45;&gt;ThreatIntel</title>
<path fill="none" stroke="#94a3b8" stroke-dasharray="5,2" d="M350.37,-144.13C349.33,-136.53 348.26,-127.46 347.75,-119.25 346.59,-100.67 347.63,-79.76 348.97,-63.42"/>
<polygon fill="#94a3b8" stroke="#94a3b8" points="352.42,-64.22 349.84,-53.94 345.45,-63.58 352.42,-64.22"/>
<text xml:space="preserve" text-anchor="middle" x="380.38" y="-110.7" font-family="Helvetica,sans-Serif" font-size="9.00" fill="#475569">ENRICHED_BY</text>
</g>
<!-- Artifact -->
<g id="node13" class="node">
<title>Artifact</title>
<path fill="#64748b" stroke="#64748b" d="M202.88,-52C202.88,-52 111.12,-52 111.12,-52 105.12,-52 99.12,-46 99.12,-40 99.12,-40 99.12,-28 99.12,-28 99.12,-22 105.12,-16 111.12,-16 111.12,-16 202.88,-16 202.88,-16 208.88,-16 214.88,-22 214.88,-28 214.88,-28 214.88,-40 214.88,-40 214.88,-46 208.88,-52 202.88,-52"/>
<text xml:space="preserve" text-anchor="middle" x="157" y="-35.55" font-family="Helvetica,sans-Serif" font-size="11.00" fill="white">Artifact</text>
<text xml:space="preserve" text-anchor="middle" x="157" y="-23.55" font-family="Helvetica,sans-Serif" font-size="11.00" fill="white">(source file + parser)</text>
</g>
<!-- Executable&#45;&gt;Artifact -->
<g id="edge17" class="edge">
<title>Executable&#45;&gt;Artifact</title>
<path fill="none" stroke="#94a3b8" stroke-dasharray="5,2" d="M317.99,-158.27C269.3,-153.35 184.86,-141.76 165,-119.25 151.91,-104.41 150.38,-81.86 151.87,-63.82"/>
<polygon fill="#94a3b8" stroke="#94a3b8" points="155.33,-64.33 153.05,-53.98 148.38,-63.49 155.33,-64.33"/>
<text xml:space="preserve" text-anchor="middle" x="201" y="-110.7" font-family="Helvetica,sans-Serif" font-size="9.00" fill="#475569">DERIVED_FROM</text>
</g>
<!-- File&#45;&gt;Artifact -->
<g id="edge16" class="edge">
<title>File&#45;&gt;Artifact</title>
<path fill="none" stroke="#94a3b8" stroke-dasharray="5,2" d="M438.04,-52.35C431.03,-67.91 418.59,-89.2 400,-98.94 361.81,-118.94 345.17,-107.89 303,-98.94 265.78,-91.03 226.53,-72.96 198.12,-57.88"/>
<polygon fill="#94a3b8" stroke="#94a3b8" points="199.95,-54.89 189.49,-53.21 196.62,-61.05 199.95,-54.89"/>
<text xml:space="preserve" text-anchor="middle" x="280" y="-110.7" font-family="Helvetica,sans-Serif" font-size="9.00" fill="#475569">DERIVED_FROM</text>
</g>
<!-- Connection -->
<g id="node10" class="node">
<title>Connection</title>
<path fill="#0891b2" stroke="#0891b2" d="M552.38,-276C552.38,-276 505.62,-276 505.62,-276 499.62,-276 493.62,-270 493.62,-264 493.62,-264 493.62,-252 493.62,-252 493.62,-246 499.62,-240 505.62,-240 505.62,-240 552.38,-240 552.38,-240 558.38,-240 564.38,-246 564.38,-252 564.38,-252 564.38,-264 564.38,-264 564.38,-270 558.38,-276 552.38,-276"/>
<text xml:space="preserve" text-anchor="middle" x="529" y="-253.55" font-family="Helvetica,sans-Serif" font-size="11.00" fill="white">Connection</text>
</g>
<!-- Event -->
<g id="node12" class="node">
<title>Event</title>
<path fill="#64748b" stroke="#64748b" d="M58,-52C58,-52 28,-52 28,-52 22,-52 16,-46 16,-40 16,-40 16,-28 16,-28 16,-22 22,-16 28,-16 28,-16 58,-16 58,-16 64,-16 70,-22 70,-28 70,-28 70,-40 70,-40 70,-46 64,-52 58,-52"/>
<text xml:space="preserve" text-anchor="middle" x="43" y="-29.55" font-family="Helvetica,sans-Serif" font-size="11.00" fill="white">Event</text>
</g>
<!-- Event&#45;&gt;Host -->
<g id="edge15" class="edge">
<title>Event&#45;&gt;Host</title>
<path fill="none" stroke="#94a3b8" d="M51.1,-52.4C58.44,-66.82 70.34,-87.19 85,-101.5 152.44,-167.32 252.82,-217.17 307.01,-241.17"/>
<polygon fill="#94a3b8" stroke="#94a3b8" points="305.58,-244.36 316.14,-245.15 308.38,-237.95 305.58,-244.36"/>
<text xml:space="preserve" text-anchor="middle" x="209.27" y="-158.57" font-family="Helvetica,sans-Serif" font-size="9.00" fill="#475569">ON_HOST</text>
</g>
</g>
</svg>
