<?xml version="1.0" encoding="UTF-8" standalone="no"?>
<!DOCTYPE svg PUBLIC "-//W3C//DTD SVG 1.1//EN"
 "http://www.w3.org/Graphics/SVG/1.1/DTD/svg11.dtd">
<!-- Generated by graphviz version 14.1.5 (20260411.2331)
 -->
<!-- Title: graphir_schema Pages: 1 -->
<svg width="922pt" height="620pt"
 viewBox="0.00 0.00 922.00 620.00" xmlns="http://www.w3.org/2000/svg" xmlns:xlink="http://www.w3.org/1999/xlink">
<g id="graph0" class="graph" transform="scale(1 1) rotate(0) translate(36 584)">
<title>graphir_schema</title>
<polygon fill="white" stroke="none" points="-36,36 -36,-584 886,-584 886,36 -36,36"/>
<text xml:space="preserve" text-anchor="start" x="170.75" y="-527.85" font-family="Helvetica,sans-Serif" font-weight="bold" font-size="17.00" fill="#1a1a1a">graphir graph schema — 13 entity types, 15 relationship types</text>
<text xml:space="preserve" text-anchor="start" x="170.75" y="-509.85" font-family="Helvetica,sans-Serif" font-weight="bold" font-size="17.00" fill="#1a1a1a">(blue = high&#45;degree hub types; clusters = subsystems)</text>
<g id="clust1" class="cluster">
<title>cluster_0</title>
<path fill="#fbfbfb" stroke="#d0d0d0" d="M20,-140.5C20,-140.5 128,-140.5 128,-140.5 134,-140.5 140,-146.5 140,-152.5 140,-152.5 140,-351.5 140,-351.5 140,-357.5 134,-363.5 128,-363.5 128,-363.5 20,-363.5 20,-363.5 14,-363.5 8,-357.5 8,-351.5 8,-351.5 8,-152.5 8,-152.5 8,-146.5 14,-140.5 20,-140.5"/>
<text xml:space="preserve" text-anchor="middle" x="74" y="-350" font-family="Helvetica,sans-Serif" font-weight="bold" font-size="10.00" fill="#8a8a8a">Investigation / Reporting</text>
</g>
<g id="clust2" class="cluster">
<title>cluster_1</title>
<path fill="#fbfbfb" stroke="#d0d0d0" d="M245,-273C245,-273 308,-273 308,-273 314,-273 320,-279 320,-285 320,-285 320,-484 320,-484 320,-490 314,-496 308,-496 308,-496 245,-496 245,-496 239,-496 233,-490 233,-484 233,-484 233,-285 233,-285 233,-279 239,-273 245,-273"/>
<text xml:space="preserve" text-anchor="middle" x="276.5" y="-482.5" font-family="Helvetica,sans-Serif" font-weight="bold" font-size="10.00" fill="#8a8a8a">Verification</text>
</g>
<g id="clust3" class="cluster">
<title>cluster_2</title>
<path fill="#fbfbfb" stroke="#d0d0d0" d="M214,-140.5C214,-140.5 260,-140.5 260,-140.5 266,-140.5 272,-146.5 272,-152.5 272,-152.5 272,-219 272,-219 272,-225 266,-231 260,-231 260,-231 214,-231 214,-231 208,-231 202,-225 202,-219 202,-219 202,-152.5 202,-152.5 202,-146.5 208,-140.5 214,-140.5"/>
<text xml:space="preserve" text-anchor="middle" x="237" y="-217.5" font-family="Helvetica,sans-Serif" font-weight="bold" font-size="10.00" fill="#8a8a8a">Identity</text>
</g>
<g id="clust4" class="cluster">
<title>cluster_3</title>
<path fill="#fbfbfb" stroke="#d0d0d0" d="M293,-140.5C293,-140.5 556,-140.5 556,-140.5 562,-140.5 568,-146.5 568,-152.5 568,-152.5 568,-219 568,-219 568,-225 562,-231 556,-231 556,-231 293,-231 293,-231 287,-231 281,-225 281,-219 281,-219 281,-152.5 281,-152.5 281,-146.5 287,-140.5 293,-140.5"/>
<text xml:space="preserve" text-anchor="middle" x="424.5" y="-217.5" font-family="Helvetica,sans-Serif" font-weight="bold" font-size="10.00" fill="#8a8a8a">Execution &amp; Binaries</text>
</g>
<g id="clust5" class="cluster">
<title>cluster_4</title>
<path fill="#fbfbfb" stroke="#d0d0d0" d="M455,-8C455,-8 501,-8 501,-8 507,-8 513,-14 513,-20 513,-20 513,-86.5 513,-86.5 513,-92.5 507,-98.5 501,-98.5 501,-98.5 455,-98.5 455,-98.5 449,-98.5 443,-92.5 443,-86.5 443,-86.5 443,-20 443,-20 443,-14 449,-8 455,-8"/>
<text xml:space="preserve" text-anchor="middle" x="478" y="-85" font-family="Helvetica,sans-Serif" font-weight="bold" font-size="10.00" fill="#8a8a8a">Filesystem</text>
</g>
<g id="clust6" class="cluster">
<title>cluster_5</title>
<path fill="#fbfbfb" stroke="#d0d0d0" d="M172,-8C172,-8 398,-8 398,-8 404,-8 410,-14 410,-20 410,-20 410,-86.5 410,-86.5 410,-92.5 404,-98.5 398,-98.5 398,-98.5 172,-98.5 172,-98.5 166,-98.5 160,-92.5 160,-86.5 160,-86.5 160,-20 160,-20 160,-14 166,-8 172,-8"/>
<text xml:space="preserve" text-anchor="middle" x="285" y="-85" font-family="Helvetica,sans-Serif" font-weight="bold" font-size="10.00" fill="#8a8a8a">Hosts &amp; Network</text>
</g>
<g id="clust7" class="cluster">
<title>cluster_6</title>
<path fill="#fbfbfb" stroke="#d0d0d0" d="M533,-8C533,-8 611,-8 611,-8 617,-8 623,-14 623,-20 623,-20 623,-86.5 623,-86.5 623,-92.5 617,-98.5 611,-98.5 611,-98.5 533,-98.5 533,-98.5 527,-98.5 521,-92.5 521,-86.5 521,-86.5 521,-20 521,-20 521,-14 527,-8 533,-8"/>
<text xml:space="preserve" text-anchor="middle" x="572" y="-85" font-family="Helvetica,sans-Serif" font-weight="bold" font-size="10.00" fill="#8a8a8a">Threat Intelligence</text>
</g>
<g id="clust8" class="cluster">
<title>cluster_7</title>
<path fill="#fbfbfb" stroke="#d0d0d0" d="M643,-8C643,-8 830,-8 830,-8 836,-8 842,-14 842,-20 842,-20 842,-86.5 842,-86.5 842,-92.5 836,-98.5 830,-98.5 830,-98.5 643,-98.5 643,-98.5 637,-98.5 631,-92.5 631,-86.5 631,-86.5 631,-20 631,-20 631,-14 637,-8 643,-8"/>
<text xml:space="preserve" text-anchor="middle" x="736.5" y="-85" font-family="Helvetica,sans-Serif" font-weight="bold" font-size="10.00" fill="#8a8a8a">Evidence &amp; Provenance</text>
</g>
<!-- Incident -->
<g id="node1" class="node">
<title>Incident</title>
<polygon fill="#ededed" stroke="#c4c4c4" points="70,-184.5 16,-184.5 16,-148.5 70,-148.5 70,-184.5"/>
<text xml:space="preserve" text-anchor="middle" x="43" y="-162.05" font-family="Helvetica,sans-Serif" font-size="11.00" fill="#1a1a1a">Incident</text>
</g>
<!-- Finding -->
<g id="node2" class="node">
<title>Finding</title>
<polygon fill="#1f6fe5" stroke="#1f6fe5" points="132,-317 78,-317 78,-281 132,-281 132,-317"/>
<text xml:space="preserve" text-anchor="middle" x="105" y="-294.55" font-family="Helvetica,sans-Serif" font-size="11.00" fill="white">Finding</text>
</g>
<!-- Finding&#45;&gt;Incident -->
<g id="edge1" class="edge">
<title>Finding&#45;&gt;Incident</title>
<path fill="none" stroke="#9aa0a6" stroke-width="0.9" d="M87.88,-280.8C79.68,-271.71 70.35,-259.98 64.25,-248 55.43,-230.67 50.01,-209.32 46.85,-192.96"/>
<polygon fill="#9aa0a6" stroke="#9aa0a6" stroke-width="0.9" points="49.3,-192.71 45.64,-186.25 44.47,-193.58 49.3,-192.71"/>
<text xml:space="preserve" text-anchor="middle" x="82.62" y="-240.4" font-family="Helvetica,sans-Serif" font-size="8.00" fill="#5f6368">PART_OF</text>
</g>
<!-- User -->
<g id="node5" class="node">
<title>User</title>
<polygon fill="#1f6fe5" stroke="#1f6fe5" points="264,-184.5 210,-184.5 210,-148.5 264,-148.5 264,-184.5"/>
<text xml:space="preserve" text-anchor="middle" x="237" y="-162.05" font-family="Helvetica,sans-Serif" font-size="11.00" fill="white">User</text>
</g>
<!-- Finding&#45;&gt;User -->
<g id="edge2" class="edge">
<title>Finding&#45;&gt;User</title>
<path fill="none" stroke="#9aa0a6" stroke-width="0.9" d="M121.71,-280.55C133.1,-268.73 148.59,-252.8 162.5,-239 178.98,-222.65 197.85,-204.54 212.48,-190.64"/>
<polygon fill="#9aa0a6" stroke="#9aa0a6" stroke-width="0.9" points="214.08,-192.49 217.48,-185.9 210.71,-188.94 214.08,-192.49"/>
<text xml:space="preserve" text-anchor="middle" x="194.75" y="-240.4" font-family="Helvetica,sans-Serif" font-size="8.00" fill="#5f6368">SUPPORTED_BY</text>
</g>
<!-- Executable -->
<g id="node7" class="node">
<title>Executable</title>
<polygon fill="#1f6fe5" stroke="#1f6fe5" points="559.62,-184.5 490.38,-184.5 490.38,-148.5 559.62,-148.5 559.62,-184.5"/>
<text xml:space="preserve" text-anchor="middle" x="525" y="-162.05" font-family="Helvetica,sans-Serif" font-size="11.00" fill="white">Executable</text>
</g>
<!-- Finding&#45;&gt;Executable -->
<g id="edge3" class="edge">
<title>Finding&#45;&gt;Executable</title>
<path fill="none" stroke="#9aa0a6" stroke-width="0.9" d="M132.49,-286.8C173.67,-270.05 247.27,-240.31 253.5,-239 277.93,-233.87 455.91,-242.63 478,-231 494.02,-222.57 506.01,-205.95 513.88,-191.83"/>
<polygon fill="#9aa0a6" stroke="#9aa0a6" stroke-width="0.9" points="515.89,-193.27 516.98,-185.93 511.55,-190.99 515.89,-193.27"/>
<text xml:space="preserve" text-anchor="middle" x="285.75" y="-240.4" font-family="Helvetica,sans-Serif" font-size="8.00" fill="#5f6368">SUPPORTED_BY</text>
</g>
<!-- Host -->
<g id="node9" class="node">
<title>Host</title>
<polygon fill="#1f6fe5" stroke="#1f6fe5" points="222,-52 168,-52 168,-16 222,-16 222,-52"/>
<text xml:space="preserve" text-anchor="middle" x="195" y="-29.55" font-family="Helvetica,sans-Serif" font-size="11.00" fill="white">Host</text>
</g>
<!-- Finding&#45;&gt;Host -->
<g id="edge4" class="edge">
<title>Finding&#45;&gt;Host</title>
<path fill="none" stroke="#9aa0a6" stroke-width="0.9" d="M105.79,-280.91C107.6,-251.41 113.42,-189.39 131.5,-140.5 142.63,-110.42 162.52,-79.36 177.09,-58.8"/>
<polygon fill="#9aa0a6" stroke="#9aa0a6" stroke-width="0.9" points="178.91,-60.47 181.01,-53.35 174.93,-57.6 178.91,-60.47"/>
<text xml:space="preserve" text-anchor="middle" x="163.75" y="-163.4" font-family="Helvetica,sans-Serif" font-size="8.00" fill="#5f6368">SUPPORTED_BY</text>
</g>
<!-- Claim -->
<g id="node3" class="node">
<title>Claim</title>
<polygon fill="#ededed" stroke="#c4c4c4" points="295,-317 241,-317 241,-281 295,-281 295,-317"/>
<text xml:space="preserve" text-anchor="middle" x="268" y="-294.55" font-family="Helvetica,sans-Serif" font-size="11.00" fill="#1a1a1a">Claim</text>
</g>
<!-- Claim&#45;&gt;User -->
<g id="edge7" class="edge">
<title>Claim&#45;&gt;User</title>
<path fill="none" stroke="#9aa0a6" stroke-width="0.9" d="M295.1,-284.8C315.55,-273.09 337.9,-255.36 324,-239 309.71,-222.19 293.25,-243.4 275,-231 261.5,-221.83 252.04,-206.12 245.93,-192.62"/>
<polygon fill="#9aa0a6" stroke="#9aa0a6" stroke-width="0.9" points="248.22,-191.75 243.25,-186.25 243.71,-193.65 248.22,-191.75"/>
<text xml:space="preserve" text-anchor="middle" x="342" y="-240.4" font-family="Helvetica,sans-Serif" font-size="8.00" fill="#5f6368">ABOUT</text>
</g>
<!-- Correction -->
<g id="node4" class="node">
<title>Correction</title>
<polygon fill="#ededed" stroke="#c4c4c4" points="307.12,-449.5 240.88,-449.5 240.88,-413.5 307.12,-413.5 307.12,-449.5"/>
<text xml:space="preserve" text-anchor="middle" x="274" y="-427.05" font-family="Helvetica,sans-Serif" font-size="11.00" fill="#1a1a1a">Correction</text>
</g>
<!-- Correction&#45;&gt;Finding -->
<g id="edge6" class="edge">
<title>Correction&#45;&gt;Finding</title>
<path fill="none" stroke="#9aa0a6" stroke-width="0.9" d="M251.56,-413.17C221.25,-389.77 167.22,-348.05 133.91,-322.32"/>
<polygon fill="#9aa0a6" stroke="#9aa0a6" stroke-width="0.9" points="135.65,-320.57 128.61,-318.23 132.66,-324.45 135.65,-320.57"/>
<text xml:space="preserve" text-anchor="middle" x="227.51" y="-372.9" font-family="Helvetica,sans-Serif" font-size="8.00" fill="#5f6368">CORRECTS</text>
</g>
<!-- Correction&#45;&gt;Claim -->
<g id="edge5" class="edge">
<title>Correction&#45;&gt;Claim</title>
<path fill="none" stroke="#9aa0a6" stroke-width="0.9" d="M273.2,-413.17C272.17,-390.75 270.37,-351.49 269.18,-325.62"/>
<polygon fill="#9aa0a6" stroke="#9aa0a6" stroke-width="0.9" points="271.63,-325.64 268.86,-318.76 266.74,-325.87 271.63,-325.64"/>
<text xml:space="preserve" text-anchor="middle" x="294.41" y="-372.9" font-family="Helvetica,sans-Serif" font-size="8.00" fill="#5f6368">CORRECTS</text>
</g>
<!-- User&#45;&gt;Host -->
<g id="edge8" class="edge">
<title>User&#45;&gt;Host</title>
<path fill="none" stroke="#9aa0a6" stroke-width="0.9" d="M214.63,-148C205.37,-139.34 195.67,-128.05 190.75,-115.5 183.88,-97.97 185.41,-76.63 188.4,-60.33"/>
<polygon fill="#9aa0a6" stroke="#9aa0a6" stroke-width="0.9" points="190.77,-60.99 189.79,-53.64 185.97,-60 190.77,-60.99"/>
<text xml:space="preserve" text-anchor="middle" x="215.88" y="-107.9" font-family="Helvetica,sans-Serif" font-size="8.00" fill="#5f6368">LOGGED_ON</text>
</g>
<!-- Process -->
<g id="node6" class="node">
<title>Process</title>
<polygon fill="#ededed" stroke="#c4c4c4" points="344.5,-184.5 289.5,-184.5 289.5,-148.5 344.5,-148.5 344.5,-184.5"/>
<text xml:space="preserve" text-anchor="middle" x="317" y="-162.05" font-family="Helvetica,sans-Serif" font-size="11.00" fill="#1a1a1a">Process</text>
</g>
<!-- Process&#45;&gt;Process -->
<g id="edge9" class="edge">
<title>Process&#45;&gt;Process</title>
<path fill="none" stroke="#9aa0a6" stroke-width="0.9" d="M344.82,-171.59C357.96,-172.18 369.5,-170.48 369.5,-166.5 369.5,-163.39 362.46,-161.67 353.11,-161.35"/>
<polygon fill="#9aa0a6" stroke="#9aa0a6" stroke-width="0.9" points="353.16,-158.9 346.18,-161.4 353.2,-163.8 353.16,-158.9"/>
<text xml:space="preserve" text-anchor="middle" x="389.75" y="-163.4" font-family="Helvetica,sans-Serif" font-size="8.00" fill="#5f6368">SPAWNED</text>
</g>
<!-- Process&#45;&gt;Process -->
<g id="edge11" class="edge">
<title>Process&#45;&gt;Process</title>
<path fill="none" stroke="#9aa0a6" stroke-width="0.9" d="M344.77,-174.7C374.16,-179.37 410,-176.64 410,-166.5 410,-157.28 380.31,-154.18 352.82,-157.22"/>
<polygon fill="#9aa0a6" stroke="#9aa0a6" stroke-width="0.9" points="352.73,-154.76 346.12,-158.12 353.39,-159.62 352.73,-154.76"/>
<text xml:space="preserve" text-anchor="middle" x="432.12" y="-163.4" font-family="Helvetica,sans-Serif" font-size="8.00" fill="#5f6368">ACCESSED</text>
</g>
<!-- Process&#45;&gt;Host -->
<g id="edge10" class="edge">
<title>Process&#45;&gt;Host</title>
<path fill="none" stroke="#9aa0a6" stroke-width="0.9" d="M310.87,-148.02C305.96,-135.59 298.2,-118.95 288,-106.5 271.45,-86.29 248.14,-68.39 229,-55.55"/>
<polygon fill="#9aa0a6" stroke="#9aa0a6" stroke-width="0.9" points="230.49,-53.6 223.3,-51.8 227.8,-57.69 230.49,-53.6"/>
<text xml:space="preserve" text-anchor="middle" x="324.69" y="-107.9" font-family="Helvetica,sans-Serif" font-size="8.00" fill="#5f6368">EXECUTED_ON</text>
</g>
<!-- File -->
<g id="node8" class="node">
<title>File</title>
<polygon fill="#1f6fe5" stroke="#1f6fe5" points="505,-52 451,-52 451,-16 505,-16 505,-52"/>
<text xml:space="preserve" text-anchor="middle" x="478" y="-29.55" font-family="Helvetica,sans-Serif" font-size="11.00" fill="white">File</text>
</g>
<!-- Executable&#45;&gt;File -->
<g id="edge15" class="edge">
<title>Executable&#45;&gt;File</title>
<path fill="none" stroke="#9aa0a6" stroke-width="0.9" d="M518.76,-148.17C510.61,-125.55 496.3,-85.81 486.98,-59.95"/>
<polygon fill="#9aa0a6" stroke="#9aa0a6" stroke-width="0.9" points="489.41,-59.44 484.73,-53.68 484.8,-61.1 489.41,-59.44"/>
<text xml:space="preserve" text-anchor="middle" x="534.21" y="-107.9" font-family="Helvetica,sans-Serif" font-size="8.00" fill="#5f6368">SAME_BINARY</text>
</g>
<!-- ThreatIntel -->
<g id="node11" class="node">
<title>ThreatIntel</title>
<polygon fill="#ededed" stroke="#c4c4c4" points="613.88,-52 546.12,-52 546.12,-16 613.88,-16 613.88,-52"/>
<text xml:space="preserve" text-anchor="middle" x="580" y="-29.55" font-family="Helvetica,sans-Serif" font-size="11.00" fill="#1a1a1a">ThreatIntel</text>
</g>
<!-- Executable&#45;&gt;ThreatIntel -->
<g id="edge16" class="edge">
<title>Executable&#45;&gt;ThreatIntel</title>
<path fill="none" stroke="#9aa0a6" stroke-width="0.9" stroke-dasharray="5,2" d="M559.94,-165.65C597.52,-163.7 655.67,-154.11 684,-115.5 686.37,-112.28 686.63,-109.51 684,-106.5 666.59,-86.57 647.64,-112.21 625,-98.5 610.08,-89.46 598.76,-73.39 591.21,-59.68"/>
<polygon fill="#9aa0a6" stroke="#9aa0a6" stroke-width="0.9" points="593.44,-58.65 588.03,-53.57 589.09,-60.91 593.44,-58.65"/>
<text xml:space="preserve" text-anchor="middle" x="714.75" y="-107.9" font-family="Helvetica,sans-Serif" font-size="8.00" fill="#5f6368">ENRICHED_BY</text>
</g>
<!-- Artifact -->
<g id="node13" class="node">
<title>Artifact</title>
<polygon fill="#ededed" stroke="#c4c4c4" points="833.88,-52 718.12,-52 718.12,-16 833.88,-16 833.88,-52"/>
<text xml:space="preserve" text-anchor="middle" x="776" y="-35.55" font-family="Helvetica,sans-Serif" font-size="11.00" fill="#1a1a1a">Artifact</text>
<text xml:space="preserve" text-anchor="middle" x="776" y="-23.55" font-family="Helvetica,sans-Serif" font-size="11.00" fill="#1a1a1a">(source file + parser)</text>
</g>
<!-- Executable&#45;&gt;Artifact -->
<g id="edge19" class="edge">
<title>Executable&#45;&gt;Artifact</title>
<path fill="none" stroke="#9aa0a6" stroke-width="0.9" stroke-dasharray="5,2" d="M560.1,-161.95C616.17,-155.6 722.48,-140.55 750,-115.5 765.31,-101.57 771.64,-78.58 774.24,-60.72"/>
<polygon fill="#9aa0a6" stroke="#9aa0a6" stroke-width="0.9" points="776.67,-61.03 775.08,-53.79 771.81,-60.44 776.67,-61.03"/>
<text xml:space="preserve" text-anchor="middle" x="789.73" y="-107.9" font-family="Helvetica,sans-Serif" font-size="8.00" fill="#5f6368">DERIVED_FROM</text>
</g>
<!-- File&#45;&gt;Artifact -->
<g id="edge18" class="edge">
<title>File&#45;&gt;Artifact</title>
<path fill="none" stroke="#9aa0a6" stroke-width="0.9" stroke-dasharray="5,2" d="M483.35,-52.38C488.72,-67.16 498.61,-86.92 515,-96.25 551.89,-117.24 666.33,-111.34 706,-96.25 725.9,-88.68 743.76,-72.57 756.46,-58.63"/>
<polygon fill="#9aa0a6" stroke="#9aa0a6" stroke-width="0.9" points="758.24,-60.32 761.02,-53.44 754.56,-57.08 758.24,-60.32"/>
<text xml:space="preserve" text-anchor="middle" x="651" y="-107.9" font-family="Helvetica,sans-Serif" font-size="8.00" fill="#5f6368">DERIVED_FROM</text>
</g>
<!-- Host&#45;&gt;Executable -->
<g id="edge13" class="edge">
<title>Host&#45;&gt;Executable</title>
<path fill="none" stroke="#9aa0a6" stroke-width="0.9" d="M222.07,-51.73C246.54,-66.15 284,-86.48 319,-98.5 336.97,-104.67 342.52,-102.07 361,-106.5 413.66,-119.14 427.83,-120.12 478,-140.5 480.95,-141.7 483.96,-143.03 486.95,-144.43"/>
<polygon fill="#9aa0a6" stroke="#9aa0a6" stroke-width="0.9" points="485.75,-146.57 493.11,-147.44 487.9,-142.16 485.75,-146.57"/>
<text xml:space="preserve" text-anchor="middle" x="434.57" y="-107.9" font-family="Helvetica,sans-Serif" font-size="8.00" fill="#5f6368">HAS_EXECUTABLE</text>
</g>
<!-- Host&#45;&gt;File -->
<g id="edge14" class="edge">
<title>Host&#45;&gt;File</title>
<path fill="none" stroke="#9aa0a6" stroke-width="0.9" d="M222.13,-52.29C246.34,-67.45 283.37,-87.81 319,-96.25 360.95,-106.19 376.19,-112.79 416,-96.25 434.28,-88.66 449.96,-72.77 460.98,-58.94"/>
<polygon fill="#9aa0a6" stroke="#9aa0a6" stroke-width="0.9" points="462.87,-60.5 465.17,-53.45 458.98,-57.52 462.87,-60.5"/>
<text xml:space="preserve" text-anchor="middle" x="267" y="-107.9" font-family="Helvetica,sans-Serif" font-size="8.00" fill="#5f6368">MODIFIED</text>
</g>
<!-- Host&#45;&gt;Host -->
<g id="edge12" class="edge">
<title>Host&#45;&gt;Host</title>
<path fill="none" stroke="#9aa0a6" stroke-width="0.9" d="M222.29,-48.09C235.41,-49.82 247,-45.13 247,-34 247,-25.31 239.93,-20.54 230.58,-19.7"/>
<polygon fill="#9aa0a6" stroke="#9aa0a6" stroke-width="0.9" points="230.58,-17.25 223.65,-19.88 230.71,-22.14 230.58,-17.25"/>
<text xml:space="preserve" text-anchor="middle" x="280.38" y="-30.9" font-family="Helvetica,sans-Serif" font-size="8.00" fill="#5f6368">CONNECTED_TO</text>
</g>
<!-- Connection -->
<g id="node10" class="node">
<title>Connection</title>
<polygon fill="#ededed" stroke="#c4c4c4" points="402.38,-52 331.62,-52 331.62,-16 402.38,-16 402.38,-52"/>
<text xml:space="preserve" text-anchor="middle" x="367" y="-29.55" font-family="Helvetica,sans-Serif" font-size="11.00" fill="#1a1a1a">Connection</text>
</g>
<!-- Event -->
<g id="node12" class="node">
<title>Event</title>
<polygon fill="#1f6fe5" stroke="#1f6fe5" points="693,-52 639,-52 639,-16 693,-16 693,-52"/>
<text xml:space="preserve" text-anchor="middle" x="666" y="-29.55" font-family="Helvetica,sans-Serif" font-size="11.00" fill="white">Event</text>
</g>
<!-- Event&#45;&gt;Host -->
<g id="edge17" class="edge">
<title>Event&#45;&gt;Host</title>
<path fill="none" stroke="#9aa0a6" stroke-width="0.9" d="M660.65,-52.38C655.28,-67.16 645.39,-86.92 629,-96.25 599.06,-113.28 352.52,-104.19 319,-96.25 286.57,-88.57 252.98,-71.01 228.95,-56.49"/>
<polygon fill="#9aa0a6" stroke="#9aa0a6" stroke-width="0.9" points="230.53,-54.59 223.29,-53.01 227.97,-58.76 230.53,-54.59"/>
<text xml:space="preserve" text-anchor="middle" x="594" y="-107.9" font-family="Helvetica,sans-Serif" font-size="8.00" fill="#5f6368">ON_HOST</text>
</g>
</g>
</svg>
